<?xml version="1.0" encoding="UTF-8" standalone="no"?>
<svg width="250px" height="92px" viewBox="0 0 250 92" version="1.1" xmlns="http://www.w3.org/2000/svg" xmlns:xlink="http://www.w3.org/1999/xlink">
    <!-- Generator: Sketch 40.1 (33804) - http://www.bohemiancoding.com/sketch -->
    <title>ic_logo</title>
    <desc>Created with Sketch.</desc>
    <defs></defs>
    <g id="Cadastro-Usuario" stroke="none" stroke-width="1" fill="none" fill-rule="evenodd">
        <g id="01-Home" transform="translate(-595.000000, -100.000000)">
            <g id="Banner" transform="translate(-147.000000, 0.000000)">
                <g id="ic_logo" transform="translate(742.000000, 100.000000)">
                    <path d="M249.217198,45.8094799 C249.217198,44.546896 248.192869,43.523406 246.929446,43.523406 C245.66854,43.523406 244.644211,44.546896 244.644211,45.8094799 L244.644211,47.2096477 C244.644211,52.4822987 240.354782,56.7725671 235.081292,56.7725671 C229.808641,56.7725671 225.517534,52.4822987 225.517534,47.2096477 L225.517534,45.8094799 C225.517534,44.546896 224.494883,43.523406 223.23146,43.523406 C221.969715,43.523406 220.946225,44.546896 220.946225,45.8094799 L220.946225,47.2096477 C220.946225,55.0041107 227.286829,61.3455537 235.081292,61.3455537 C238.766695,61.3455537 242.125755,59.9277685 244.644211,57.6089765 L244.644211,71.2348154 C244.644211,71.353104 244.661829,71.4663591 244.678607,71.5787752 C244.647567,71.7331376 244.627433,71.8908557 244.627433,72.0544463 C244.627433,80.0586409 238.116527,86.5712248 230.112332,86.5712248 C222.108138,86.5712248 215.596393,80.0586409 215.596393,72.0544463 C215.596393,70.7910235 214.573742,69.7675336 213.310319,69.7675336 C212.046896,69.7675336 211.023406,70.7910235 211.023406,72.0544463 C211.023406,82.580453 219.588003,91.1442114 230.112332,91.1442114 C240.6375,91.1442114 249.200419,82.580453 249.200419,72.0544463 C249.200419,71.9361577 249.18448,71.8220638 249.166023,71.7096477 C249.198742,71.5561242 249.217198,71.3975671 249.217198,71.2348154 L249.217198,45.8094799 Z M166.622399,43.7079698 C166.61401,43.7079698 166.603943,43.7096477 166.596393,43.7096477 L150.833809,43.7096477 C150.838003,43.6895134 150.839681,43.6685403 150.844715,43.648406 C150.849748,43.626594 150.853104,43.6064597 150.858138,43.5863255 C150.885822,43.4646812 150.920218,43.3447148 150.951258,43.2247483 C151.002433,43.0317953 151.056124,42.8380034 151.118205,42.6467282 C151.123238,42.6324664 151.128272,42.6182047 151.131628,42.603943 C151.181124,42.4562919 151.236493,42.3136745 151.291862,42.1685403 C151.353104,42.0083054 151.413507,41.8489094 151.482299,41.6911913 C151.48901,41.6769295 151.495721,41.6618289 151.499916,41.6475671 C151.575419,41.4797819 151.655956,41.3161913 151.739849,41.1534396 C151.80193,41.0284396 151.86401,40.9034396 151.932802,40.7801174 C151.944547,40.7591443 151.957131,40.7373322 151.968876,40.7155201 C152.065352,40.5435403 152.170218,40.3774329 152.275084,40.2113255 C152.34052,40.1106544 152.405117,40.0083054 152.473909,39.9093121 C152.493205,39.8791107 152.515856,39.8489094 152.53599,39.8187081 C152.650923,39.6584732 152.768372,39.5024329 152.888339,39.3480705 C152.962164,39.2566275 153.034312,39.1651846 153.108977,39.0762584 C153.1375,39.0410235 153.166862,39.0083054 153.196225,38.9747483 C153.323742,38.8262584 153.455453,38.6811242 153.589681,38.5418624 C153.681124,38.444547 153.775923,38.3489094 153.87156,38.2574664 C154.033473,38.1005872 154.198742,37.9495805 154.370721,37.8036074 C154.463003,37.7239094 154.55948,37.6458893 154.655956,37.569547 C154.831292,37.4286074 155.011661,37.2927013 155.197064,37.1643456 C155.303607,37.0888423 155.411829,37.0175336 155.519211,36.9479027 C155.696225,36.8346477 155.874916,36.7247483 156.058641,36.6198826 C156.194547,36.5443792 156.332131,36.4722315 156.469715,36.4017617 C156.630789,36.3203859 156.791023,36.2406879 156.956292,36.1677013 C157.12995,36.0896812 157.306963,36.0175336 157.483977,35.9495805 C157.618205,35.8975671 157.753272,35.8472315 157.890856,35.8002517 C158.100587,35.7297819 158.311997,35.6660235 158.525084,35.6089765 C158.639178,35.5770973 158.754111,35.5477349 158.869044,35.5200503 C159.099748,35.4663591 159.332131,35.4193792 159.565352,35.3807886 C159.673574,35.3623322 159.784312,35.3447148 159.895889,35.3296141 C160.129111,35.2977349 160.363171,35.274245 160.597232,35.2574664 C160.718876,35.2499161 160.841359,35.2432047 160.964681,35.2390101 C163.656795,35.1408557 166.386661,36.035151 168.546057,37.9688758 C168.608138,38.0250839 168.67693,38.0645134 168.742366,38.1131711 C169.458809,38.728943 169.863171,39.6089765 169.850587,40.5628356 C169.827097,42.3061242 168.401762,43.7079698 166.665185,43.7079698 L166.622399,43.7079698 L166.622399,43.7079698 Z M166.694547,48.2809564 C170.911829,48.2633389 174.365688,44.8564597 174.421896,40.6223993 C174.454614,38.1693792 173.306124,35.8187081 171.349748,34.3354866 C171.305285,34.3019295 171.255789,34.2801174 171.210487,34.250755 C168.410151,31.9009228 164.999916,30.717198 161.580453,30.6702181 C161.503272,30.6618289 161.429446,30.6467282 161.353104,30.6467282 C159.037668,30.6467282 156.842198,31.1651846 154.870721,32.0880034 C154.836326,32.103104 154.803607,32.1173658 154.770889,32.1324664 C154.384144,32.3170302 154.009144,32.5192114 153.640017,32.7339765 C153.561997,32.7801174 153.479782,32.8237416 153.400923,32.8723993 C153.070386,33.0729027 152.749077,33.2901846 152.43448,33.5150168 C152.296896,33.6140101 152.162668,33.7138423 152.025923,33.8161913 C151.757466,34.023406 151.495721,34.2390101 151.241527,34.4630034 C151.103943,34.5838087 150.969715,34.7071309 150.835487,34.8329698 C150.64505,35.0116611 150.459648,35.1962248 150.279279,35.3841443 C150.251594,35.410151 150.220554,35.4302852 150.192869,35.4579698 C150.124077,35.5326342 150.058641,35.6089765 149.989849,35.6836409 C149.968037,35.7088087 149.943708,35.728943 149.922735,35.7541107 C149.900923,35.7767617 149.884983,35.8002517 149.864849,35.8237416 C149.548574,36.1794463 149.254111,36.546057 148.973909,36.9252517 C148.952097,36.955453 148.929446,36.9856544 148.906795,37.0166946 C148.614849,37.4193792 148.344715,37.8338087 148.093876,38.2599832 C148.093876,38.2616611 148.092198,38.2633389 148.092198,38.2650168 C147.125755,39.9160235 146.479782,41.7272651 146.187836,43.6232383 C146.181963,43.6643456 146.175252,43.7062919 146.170218,43.7473993 C146.140856,43.9470638 146.114849,44.149245 146.093037,44.3514262 C146.084648,44.4277685 146.078775,44.5041107 146.072064,44.5796141 C146.055285,44.7499161 146.042701,44.921057 146.032634,45.0930369 C146.025923,45.194547 146.022567,45.296057 146.017534,45.398406 C146.0125,45.5477349 146.009983,45.6962248 146.008305,45.8463926 C146.008305,45.8958893 146.003272,45.9453859 146.003272,45.9965604 L146.003272,45.9965604 C146.003272,46.0678691 146.009983,46.1383389 146.009983,46.2096477 C146.009983,46.285151 146.008305,46.3606544 146.009983,46.4361577 C146.011661,46.4940436 146.017534,46.5510906 146.019211,46.6081376 C146.024245,46.7381711 146.030956,46.8673658 146.039346,46.9965604 C146.048574,47.125755 146.056963,47.2549497 146.068708,47.3849832 C146.080453,47.5057886 146.093037,47.6274329 146.10646,47.7482383 C146.122399,47.8908557 146.140856,48.0334732 146.161829,48.1744128 C146.175252,48.274245 146.189513,48.3732383 146.206292,48.4722315 C146.232299,48.6416946 146.263339,48.8086409 146.296057,48.9755872 C146.30948,49.0427013 146.324581,49.1098154 146.337164,49.1769295 C146.37995,49.3791107 146.426091,49.580453 146.476426,49.7801174 C146.484815,49.807802 146.491527,49.8363255 146.498238,49.8656879 C146.986493,51.7549497 147.829614,53.5259228 148.994883,55.1005872 C149.015017,55.1240772 149.030956,55.1475671 149.049413,55.1727349 C149.329614,55.5452181 149.625755,55.9076342 149.940352,56.2557886 C149.98146,56.3010906 150.022567,56.3455537 150.063674,56.3900168 C150.304446,56.6509228 150.553607,56.9093121 150.815352,57.1559564 C150.864849,57.2046141 150.920218,57.2432047 150.97307,57.2910235 C151.02005,57.3354866 151.061158,57.3841443 151.110654,57.4286074 C151.140017,57.4562919 151.176091,57.4747483 151.207131,57.4999161 C151.377433,57.6509228 151.549413,57.7977349 151.728104,57.9403523 C151.855621,58.0452181 151.985654,58.148406 152.118205,58.2473993 C152.369044,58.4361577 152.624077,58.6165268 152.886661,58.7901846 C153.03599,58.8908557 153.187836,58.9890101 153.342198,59.0829698 C153.598909,59.2406879 153.859815,59.3908557 154.128272,59.5343121 C154.291023,59.6207215 154.454614,59.705453 154.619883,59.7868289 C154.893372,59.921057 155.173574,60.0485738 155.457131,60.1668624 C155.616527,60.2322987 155.776762,60.2943792 155.937836,60.3556208 C156.240688,60.4713926 156.548574,60.5779362 156.861493,60.6735738 C157.000755,60.7155201 157.140017,60.7541107 157.279279,60.7927013 C157.623238,60.8875 157.970554,60.9730705 158.324581,61.0435403 C158.427768,61.0645134 158.532634,61.0812919 158.6375,61.0997483 C159.027601,61.1702181 159.422735,61.2297819 159.823742,61.2692114 C159.883305,61.274245 159.940352,61.2776007 159.999077,61.2826342 C160.436997,61.3203859 160.880789,61.3447148 161.327936,61.3447148 C161.33297,61.3447148 161.338003,61.3455537 161.341359,61.3455537 L161.34807,61.3455537 L161.353104,61.3455537 L161.354782,61.3455537 C161.499916,61.3455537 161.645889,61.3430369 161.791862,61.3388423 C165.890017,61.2222315 169.697903,59.5150168 172.510822,56.5343121 C173.37995,55.6165268 173.338842,54.1693792 172.419379,53.3019295 C171.501594,52.4344799 170.055285,52.4772651 169.187836,53.3950503 C167.212164,55.4881711 164.537668,56.6861577 161.662668,56.7683725 C161.420218,56.7750839 161.179446,56.7608221 160.939513,56.7524329 C160.777601,56.7457215 160.612332,56.7406879 160.449581,56.7272651 C160.244883,56.7096477 160.04354,56.6836409 159.842198,56.6534396 C159.689513,56.6324664 159.537668,56.6131711 159.388339,56.5846477 C159.197903,56.5494128 159.009983,56.5057886 158.822903,56.4604866 C158.659312,56.421057 158.494883,56.3816275 158.336326,56.3346477 C158.174413,56.2885067 158.015017,56.2331376 157.85646,56.1794463 C157.672735,56.1165268 157.490688,56.0510906 157.311997,55.978943 C157.181124,55.9260906 157.055285,55.8690436 156.92693,55.8111577 C156.728943,55.7213926 156.530956,55.6291107 156.338842,55.5267617 C156.233977,55.4722315 156.130789,55.4109899 156.025923,55.3522651 C155.824581,55.2364933 155.624077,55.1182047 155.431124,54.9890101 C155.338003,54.9286074 155.247399,54.8631711 155.155956,54.7977349 C154.962164,54.6609899 154.772567,54.5217282 154.587164,54.3732383 C154.499077,54.3027685 154.415185,54.2264262 154.330453,54.1517617 C154.177768,54.0208893 154.02844,53.8875 153.884144,53.7482383 C153.810319,53.6769295 153.736493,53.603104 153.665185,53.5292785 C153.638339,53.5032718 153.61401,53.4764262 153.588003,53.4504195 C153.440352,53.2943792 153.292701,53.1358221 153.15344,52.9722315 C153.077936,52.8833054 153.004111,52.7935403 152.932802,52.7020973 C152.788507,52.5217282 152.650923,52.3380034 152.517534,52.1475671 C152.445386,52.0443792 152.376594,51.9395134 152.307802,51.8346477 C152.193708,51.6559564 152.082131,51.4747483 151.975587,51.2893456 C151.900084,51.1542785 151.829614,51.0175336 151.759144,50.8799497 C151.67693,50.7205537 151.598909,50.5603188 151.525084,50.3950503 C151.446225,50.2188758 151.374077,50.0410235 151.305285,49.8623322 C151.25495,49.728943 151.205453,49.5980705 151.159312,49.4630034 C151.087164,49.2490772 151.021728,49.0343121 150.964681,48.8187081 C150.935319,48.7088087 150.905117,48.5972315 150.879111,48.4864933 C150.863171,48.4193792 150.853104,48.3497483 150.838003,48.2826342 L166.666862,48.2826342 C166.676091,48.2826342 166.68448,48.2809564 166.694547,48.2809564 L166.694547,48.2809564 Z M211.070386,59.0594799 C211.070386,60.3212248 212.094715,61.3455537 213.35646,61.3455537 C214.619883,61.3455537 215.643372,60.3212248 215.643372,59.0594799 L215.643372,35.2188758 L223.23146,35.2188758 C224.494883,35.2188758 225.517534,34.1953859 225.517534,32.932802 C225.517534,31.6702181 224.494883,30.6467282 223.23146,30.6467282 L215.643372,30.6467282 L215.643372,21.1668624 C215.643372,19.9051174 214.619883,18.8807886 213.35646,18.8807886 C212.094715,18.8807886 211.070386,19.9051174 211.070386,21.1668624 L211.070386,32.8698826 C211.068708,32.8916946 211.063674,32.9118289 211.063674,32.932802 C211.063674,32.9546141 211.068708,32.9747483 211.070386,32.9965604 L211.070386,59.0594799 Z M198.845554,43.7079698 C198.838842,43.7079698 198.832131,43.7096477 198.826258,43.7096477 L183.088003,43.7096477 C183.091359,43.6886745 183.094715,43.6677013 183.098909,43.6467282 C183.103943,43.6249161 183.108977,43.603104 183.11401,43.5812919 C183.140017,43.4630034 183.172735,43.3480705 183.202936,43.2314597 C183.25495,43.0359899 183.308641,42.8405201 183.37156,42.6467282 C183.378272,42.6316275 183.382466,42.6156879 183.3875,42.6005872 C183.436997,42.4562919 183.490688,42.3145134 183.545218,42.1727349 C183.603943,42.0116611 183.666023,41.8514262 183.734815,41.6928691 C183.741527,41.6760906 183.749916,41.660151 183.758305,41.6433725 C183.830453,41.478104 183.911829,41.3161913 183.994044,41.1551174 C184.056124,41.0301174 184.116527,40.9059564 184.185319,40.7834732 C184.198742,40.7599832 184.212164,40.7364933 184.226426,40.7121644 C184.322064,40.5410235 184.425252,40.375755 184.530117,40.2113255 C184.593876,40.1114933 184.657634,40.0116611 184.72307,39.9143456 C184.747399,39.8807886 184.770889,39.8472315 184.79354,39.8145134 C184.906795,39.6559564 185.022567,39.4999161 185.144211,39.3463926 C185.214681,39.2583054 185.285151,39.1693792 185.358977,39.0812919 C185.388339,39.0452181 185.421057,39.0083054 185.452097,38.9722315 C185.580453,38.8237416 185.711326,38.6794463 185.845554,38.5393456 C185.936997,38.4437081 186.030956,38.3489094 186.124077,38.2583054 C186.28599,38.1014262 186.453775,37.9487416 186.625755,37.8019295 C186.718876,37.7230705 186.811997,37.6458893 186.907634,37.569547 C187.085487,37.4286074 187.265856,37.2927013 187.451258,37.1635067 C187.557802,37.0888423 187.666023,37.0183725 187.774245,36.9479027 C187.951258,36.8346477 188.131628,36.7247483 188.314513,36.6198826 C188.448742,36.5443792 188.585487,36.4722315 188.72307,36.4026007 C188.883305,36.3203859 189.045218,36.2415268 189.211326,36.1677013 C189.384983,36.0896812 189.561997,36.0175336 189.73901,35.9504195 C189.873238,35.8975671 190.007466,35.8472315 190.14505,35.8002517 C190.354782,35.7297819 190.566191,35.6660235 190.779279,35.6089765 C190.894211,35.5770973 191.006628,35.5477349 191.123238,35.5200503 C191.353943,35.4663591 191.585487,35.4193792 191.817869,35.3807886 C191.927768,35.3623322 192.039346,35.3447148 192.150923,35.3296141 C192.383305,35.2977349 192.615688,35.274245 192.850587,35.2574664 C192.97307,35.2499161 193.096393,35.2432047 193.218876,35.2390101 C195.91099,35.1408557 198.640856,36.035151 200.800252,37.9688758 C200.862332,38.024245 200.929446,38.0636745 200.994044,38.1106544 C201.713003,38.728104 202.117366,39.6081376 202.104782,40.5628356 C202.081292,42.3061242 200.655956,43.7079698 198.919379,43.7079698 C198.89505,43.7079698 198.869883,43.7071309 198.845554,43.7079698 L198.845554,43.7079698 Z M198.948742,48.2809564 C203.166023,48.2641779 206.620721,44.8572987 206.676091,40.6232383 C206.708809,38.1702181 205.560319,35.819547 203.603943,34.3354866 C203.557802,34.3010906 203.509144,34.2792785 203.463003,34.2499161 C200.664346,31.899245 197.253272,30.7163591 193.83297,30.6702181 C193.758305,30.6618289 193.68448,30.6467282 193.607299,30.6467282 C191.290185,30.6467282 189.093037,31.1651846 187.12156,32.0888423 C187.09052,32.103104 187.057802,32.1165268 187.02844,32.1316275 C186.638339,32.3170302 186.259983,32.5200503 185.890017,32.7364933 C185.812836,32.7809564 185.733977,32.8237416 185.658473,32.8690436 C185.322903,33.0737416 184.998238,33.2927013 184.680285,33.5208893 C184.551091,33.6140101 184.423574,33.7088087 184.295218,33.8052852 C184.016695,34.0183725 183.748238,34.2406879 183.483977,34.4722315 C183.354782,34.5863255 183.227265,34.7029362 183.098909,34.8220638 C182.904279,35.0057886 182.714681,35.1953859 182.529279,35.3891779 C182.503272,35.4135067 182.47307,35.4319631 182.448742,35.4579698 C182.37995,35.5309564 182.316191,35.6072987 182.247399,35.6811242 C182.224748,35.7071309 182.197903,35.728104 182.17693,35.7541107 C182.155117,35.7767617 182.1375,35.8027685 182.116527,35.8262584 C181.803607,36.1802852 181.508305,36.546057 181.23146,36.921896 C181.207131,36.9546141 181.183641,36.9856544 181.16099,37.0175336 C180.869044,37.4202181 180.598909,37.8338087 180.349748,38.2591443 C180.34807,38.2616611 180.34807,38.2641779 180.344715,38.2666946 C179.502433,39.7046141 178.905956,41.2650168 178.572064,42.899245 C178.570386,42.9084732 178.568708,42.9185403 178.56703,42.9286074 C178.520889,43.1559564 178.478943,43.3849832 178.442869,43.614849 C178.436158,43.6651846 178.429446,43.7163591 178.422735,43.7666946 C178.393372,43.9579698 178.369044,44.149245 178.348909,44.342198 C178.339681,44.4277685 178.331292,44.5125 178.322903,44.5980705 C178.310319,44.7591443 178.296896,44.921057 178.286829,45.0829698 C178.280117,45.1928691 178.276762,45.3036074 178.272567,45.4151846 C178.267534,45.5552852 178.264178,45.694547 178.2625,45.8354866 C178.2625,45.8883389 178.257466,45.9420302 178.257466,45.9965604 L178.257466,45.9965604 C178.257466,46.0729027 178.264178,46.148406 178.264178,46.2247483 C178.265856,46.2952181 178.264178,46.3656879 178.264178,46.4361577 C178.265856,46.4906879 178.270889,46.5435403 178.274245,46.5972315 C178.276762,46.7356544 178.285151,46.8723993 178.295218,47.0099832 C178.303607,47.1307886 178.312836,47.251594 178.321225,47.3723993 C178.334648,47.5024329 178.347232,47.6316275 178.362332,47.7616611 C178.379111,47.8942114 178.39505,48.0284396 178.413507,48.1609899 C178.429446,48.2692114 178.444547,48.3774329 178.462164,48.4839765 C178.486493,48.6442114 178.518372,48.8036074 178.549413,48.9621644 C178.561997,49.0376678 178.577097,49.1123322 178.593037,49.1869966 C178.634144,49.3816275 178.680285,49.5754195 178.728104,49.7683725 C178.737332,49.8027685 178.745721,49.8380034 178.754111,49.8732383 C179.244044,51.7608221 180.088003,53.5309564 181.250755,55.103943 C181.269211,55.1249161 181.283473,55.1458893 181.300252,55.1685403 C181.582131,55.5443792 181.87995,55.9084732 182.197903,56.2591443 C182.235654,56.3010906 182.275084,56.3438758 182.314513,56.3866611 C182.556963,56.649245 182.806124,56.9076342 183.067869,57.1559564 C183.119044,57.2046141 183.176091,57.2448826 183.228943,57.2927013 C183.275923,57.3371644 183.31703,57.3849832 183.364849,57.4286074 C183.394211,57.4546141 183.428607,57.4739094 183.459648,57.4982383 C183.631628,57.6500839 183.803607,57.7977349 183.982299,57.9403523 C184.110654,58.0452181 184.239849,58.1475671 184.370721,58.2457215 C184.62156,58.4353188 184.879111,58.6173658 185.142534,58.7918624 C185.291862,58.8916946 185.441191,58.9873322 185.593037,59.080453 C185.850587,59.239849 186.117366,59.3916946 186.385822,59.5359899 C186.546896,59.6215604 186.707131,59.7046141 186.873238,59.785151 C187.148406,59.9202181 187.428607,60.0485738 187.713003,60.1677013 C187.870721,60.2339765 188.029279,60.2943792 188.188674,60.3547819 C188.493205,60.4713926 188.802768,60.5779362 189.119044,60.6744128 C189.25495,60.7155201 189.392534,60.7541107 189.530956,60.7918624 C189.876594,60.8875 190.225587,60.9730705 190.579614,61.0452181 C190.682802,61.0645134 190.787668,61.0812919 190.890856,61.0997483 C191.281795,61.1702181 191.678607,61.2297819 192.080453,61.2692114 C192.135822,61.274245 192.196225,61.2776007 192.254111,61.2826342 C192.691191,61.3203859 193.134983,61.3447148 193.58297,61.3447148 C193.587164,61.3447148 193.592198,61.3455537 193.595554,61.3455537 L193.603943,61.3455537 L193.607299,61.3455537 L193.608977,61.3455537 C193.75495,61.3455537 193.900084,61.3430369 194.046057,61.3388423 C198.144211,61.2222315 201.952097,59.5150168 204.767534,56.5343121 C205.634144,55.6165268 205.593037,54.1693792 204.673574,53.3019295 C203.756628,52.4353188 202.30948,52.4772651 201.442869,53.3950503 C199.204614,55.7650168 196.1375,56.8849832 193.112332,56.7482383 C192.997399,56.7423658 192.881628,56.7390101 192.766695,56.7297819 C192.534312,56.7121644 192.301091,56.6836409 192.070386,56.6500839 C191.950419,56.6324664 191.831292,56.6156879 191.713003,56.5955537 C191.493205,56.5561242 191.277601,56.5083054 191.061158,56.455453 C190.928607,56.4244128 190.796896,56.3916946 190.666023,56.3547819 C190.474748,56.2994128 190.282634,56.2373322 190.09052,56.171896 C189.938674,56.1190436 189.78599,56.0645134 189.636661,56.0049497 C189.476426,55.9420302 189.317869,55.8723993 189.160151,55.8002517 C188.986493,55.7213926 188.814513,55.6408557 188.647567,55.5536074 C188.516695,55.4864933 188.388339,55.4118289 188.259144,55.3396812 C188.075419,55.2339765 187.89505,55.126594 187.719715,55.0108221 C187.608138,54.9378356 187.500755,54.8614933 187.390856,54.7843121 C187.210487,54.6551174 187.031795,54.5250839 186.859815,54.3866611 C186.759983,54.3061242 186.661829,54.2180369 186.561158,54.1324664 C186.419379,54.0091443 186.27844,53.8816275 186.141695,53.7482383 C186.06703,53.6769295 185.993205,53.603943 185.919379,53.5292785 C185.893372,53.501594 185.866527,53.4747483 185.838842,53.4479027 C185.691191,53.2935403 185.546896,53.1358221 185.409312,52.9730705 C185.33297,52.8833054 185.257466,52.7918624 185.185319,52.6995805 C185.041023,52.5217282 184.905117,52.3396812 184.774245,52.1509228 C184.700419,52.0452181 184.62995,51.9378356 184.55948,51.8296141 C184.446225,51.6542785 184.336326,51.4747483 184.233138,51.2927013 C184.154279,51.1551174 184.080453,51.0158557 184.009983,50.875755 C183.930285,50.7180369 183.853104,50.5603188 183.780956,50.398406 C183.700419,50.2205537 183.626594,50.0393456 183.557802,49.8564597 C183.509144,49.728104 183.459648,49.5980705 183.413507,49.4663591 C183.342198,49.2499161 183.275923,49.0317953 183.21552,48.8119966 C183.187836,48.705453 183.160151,48.5989094 183.134144,48.4923658 C183.117366,48.4227349 183.107299,48.3522651 183.093037,48.2826342 L198.922735,48.2826342 C198.931124,48.2826342 198.938674,48.2809564 198.948742,48.2809564 L198.948742,48.2809564 Z M119.717198,18.8103188 C112.020889,18.8103188 105.760822,25.0712248 105.760822,32.7683725 C105.760822,32.796057 105.766695,32.8229027 105.766695,32.8505872 C105.766695,32.8791107 105.760822,32.9051174 105.760822,32.932802 L105.760822,59.0594799 C105.760822,60.3212248 106.782634,61.3455537 108.046057,61.3455537 C109.307802,61.3455537 110.333809,60.3212248 110.333809,59.0594799 L110.333809,48.2826342 L121.827936,48.2826342 C123.091359,48.2826342 124.114849,47.2583054 124.114849,45.9965604 C124.114849,44.7339765 123.091359,43.7096477 121.827936,43.7096477 L110.333809,43.7096477 L110.333809,32.932802 C110.333809,32.9051174 110.325419,32.8791107 110.323742,32.8505872 C110.325419,32.8229027 110.333809,32.796057 110.333809,32.7683725 C110.333809,27.5930369 114.541023,23.3833054 119.717198,23.3833054 C124.891695,23.3833054 129.101426,27.5930369 129.101426,32.7683725 C129.101426,34.0309564 130.125755,35.0544463 131.389178,35.0544463 C132.652601,35.0544463 133.674413,34.0309564 133.674413,32.7683725 C133.674413,25.0712248 127.414346,18.8103188 119.717198,18.8103188 L119.717198,18.8103188 Z M139.422735,18.8807886 C138.16099,18.8807886 137.134983,19.9051174 137.134983,21.1668624 L137.134983,59.0594799 C137.134983,60.3212248 138.16099,61.3455537 139.422735,61.3455537 C140.686158,61.3455537 141.710487,60.3212248 141.710487,59.0594799 L141.710487,21.1668624 C141.710487,19.9051174 140.686158,18.8807886 139.422735,18.8807886 L139.422735,18.8807886 Z" id="Fill-1" fill="#00AAFF"></path>
                    <path d="M90.3246644,46.0004195 C90.3246644,70.9442114 70.1048658,91.1640101 45.1627517,91.1640101 C20.2197987,91.1640101 0,70.9442114 0,46.0004195 C0,21.0591443 20.2197987,0.838506711 45.1627517,0.838506711 C70.1048658,0.838506711 90.3246644,21.0591443 90.3246644,46.0004195" id="Fill-3" fill="#00AAFF"></path>
                    <path d="M43.3571309,25.8964765 L60.1700503,25.8964765 C62.5249161,25.8964765 64.4401846,23.9803691 64.4401846,21.6263423 C64.4401846,19.2714765 62.5249161,17.3545302 60.1700503,17.3545302 L53.7950503,17.3545302 C48.6448826,17.3545302 44.3369966,21.0307047 43.3571309,25.8964765 L43.3571309,25.8964765 Z M34.6658557,30.107047 C32.3118289,30.107047 30.3965604,32.0223154 30.3965604,34.3763423 C30.3965604,35.5181208 30.8403523,36.5902685 31.6473993,37.3964765 C32.4536074,38.2043624 33.525755,38.6481544 34.6658557,38.6481544 L38.9376678,38.6481544 L38.9376678,30.107047 L34.6658557,30.107047 Z M43.1482383,42.8587248 L43.1482383,51.3998322 L53.7950503,51.3989933 C56.1490772,51.3989933 58.0643456,49.4837248 58.0643456,47.129698 C58.0643456,44.7748322 56.1490772,42.8587248 53.7950503,42.8587248 L43.1482383,42.8587248 Z M38.9376678,55.6104027 L34.6675336,55.6104027 C33.526594,55.6104027 32.4536074,56.0550336 31.6473993,56.8620805 C30.8411913,57.6682886 30.3965604,58.7395973 30.3965604,59.8813758 L30.3965604,72.6330537 C30.3965604,74.9870805 32.3126678,76.902349 34.6675336,76.902349 C37.0223993,76.902349 38.9376678,74.9870805 38.9376678,72.6330537 L38.9376678,55.6104027 Z M34.6675336,81.1137584 C29.9913591,81.1137584 26.1868289,77.3092282 26.1868289,72.6330537 L26.1868289,59.8813758 C26.1868289,55.2043624 29.9905201,51.3998322 34.6658557,51.3998322 L38.9376678,51.3998322 L38.9376678,42.8587248 L34.6658557,42.8587248 C32.400755,42.8587248 30.2715604,41.9761745 28.6692114,40.3738255 C27.0677013,38.7714765 26.1859899,36.6422819 26.1868289,34.3763423 C26.1868289,29.7010067 29.9905201,25.8964765 34.6658557,25.8964765 L39.0861577,25.8964765 C40.1121644,18.697651 46.3168624,13.1447987 53.7950503,13.1447987 L60.1700503,13.1447987 C64.8462248,13.1447987 68.650755,16.9493289 68.650755,21.6263423 C68.650755,26.3025168 64.8462248,30.107047 60.1700503,30.107047 L43.1482383,30.107047 L43.1482383,38.6481544 L53.7950503,38.6481544 C58.4712248,38.6481544 62.2749161,42.4518456 62.2749161,47.129698 C62.2749161,51.8058725 58.4712248,55.6104027 53.7950503,55.6104027 L43.1482383,55.6104027 L43.1482383,72.6330537 C43.1482383,77.3092282 39.3437081,81.1137584 34.6675336,81.1137584 L34.6675336,81.1137584 Z" id="Fill-6" fill="#FFFFFF"></path>
                </g>
            </g>
        </g>
    </g>
</svg>